<svg id="visual" viewBox="0 0 900 600" width="900" height="600" xmlns="http://www.w3.org/2000/svg" xmlns:xlink="http://www.w3.org/1999/xlink" version="1.1"><rect x="0" y="0" width="900" height="600" fill="#002233"></rect><path d="M0 507L21.5 500.3C43 493.7 86 480.3 128.8 479.8C171.7 479.3 214.3 491.7 257.2 481.7C300 471.7 343 439.3 385.8 430.2C428.7 421 471.3 435 514.2 450.5C557 466 600 483 642.8 489.8C685.7 496.7 728.3 493.3 771.2 478.5C814 463.7 857 437.3 878.5 424.2L900 411L900 601L878.5 601C857 601 814 601 771.2 601C728.3 601 685.7 601 642.8 601C600 601 557 601 514.2 601C471.3 601 428.7 601 385.8 601C343 601 300 601 257.2 601C214.3 601 171.7 601 128.8 601C86 601 43 601 21.5 601L0 601Z" fill="#0066FF" stroke-linecap="round" stroke-linejoin="miter"></path></svg>